<svg width="32" height="26" viewBox="0 0 32 26" fill="none" xmlns="http://www.w3.org/2000/svg">
<path d="M15.9837 16.0894C18.6018 16.0894 20.7296 14.0096 20.7296 11.4505C20.7296 8.89138 18.6018 6.81151 15.9837 6.81151C13.3656 6.81151 11.2378 8.89138 11.2378 11.4505C11.2378 14.0096 13.3656 16.0894 15.9837 16.0894ZM15.9837 8.22045C17.8075 8.22045 19.2882 9.66773 19.2882 11.4505C19.2882 13.2332 17.8075 14.6805 15.9837 14.6805C14.1599 14.6805 12.6792 13.2332 12.6792 11.4505C12.6792 9.66773 14.1599 8.22045 15.9837 8.22045Z" fill="#CE2E28"/>
<path d="M22.8279 4.25262H21.161C20.7657 4.25262 20.4452 4.56587 20.4452 4.95229V5.67114C20.4452 6.05756 20.7657 6.37083 21.161 6.37083H22.8279C23.2233 6.37083 23.5437 6.05756 23.5437 5.67114V4.95229C23.5437 4.56587 23.2233 4.25262 22.8279 4.25262Z" fill="#CE2E28"/>
<path d="M31.2906 24.016L25.8485 19.9138C25.8976 19.7412 25.9172 19.5687 25.9172 19.3866V4.17578C25.9172 3.00645 24.9464 2.06716 23.7599 2.06716H12.1305V1.63585C12.1305 1.25246 11.807 0.936169 11.4147 0.936169H9.75759C9.36536 0.936169 9.04177 1.25246 9.04177 1.63585V2.06716H8.2083C7.01202 2.06716 6.05108 3.01603 6.05108 4.17578V19.3866C6.05108 19.6166 6.09031 19.8371 6.15895 20.0384L0.707039 24.0256C0.00103837 24.5431 0.0402702 25.0511 0.12852 25.3099C0.21677 25.5687 0.491322 26 1.37382 26H30.614C31.4965 26 31.7711 25.5687 31.8691 25.3099C31.9574 25.0511 32.0064 24.5431 31.3102 24.016H31.2906ZM7.4827 4.17578C7.4827 3.78281 7.80627 3.4761 8.1985 3.4761H23.7599C24.162 3.4761 24.4757 3.79239 24.4757 4.17578V18.8786L23.8286 18.3898C23.1716 17.901 22.0636 17.5272 21.2399 17.5272H11.0323C10.2086 17.5272 9.10061 17.8914 8.43383 18.3706L7.4827 19.0607V4.17578ZM2.33477 24.5815L8.49267 20.0767L9.29673 19.492C9.69876 19.1949 10.5224 18.9265 11.0323 18.9265H21.2399C21.74 18.9265 22.5539 19.1949 22.9559 19.5016L23.7305 20.0863L29.6923 24.5911H2.33477V24.5815Z" fill="#CE2E28"/>
</svg>
