<svg width="52" height="41" viewBox="0 0 52 41" fill="none" xmlns="http://www.w3.org/2000/svg">
<path d="M25.9734 24.7495C30.2495 24.7495 33.7248 21.3525 33.7248 17.1728C33.7248 12.9931 30.2495 9.59605 25.9734 9.59605C21.6973 9.59605 18.222 12.9931 18.222 17.1728C18.222 21.3525 21.6973 24.7495 25.9734 24.7495ZM25.9734 11.8972C28.9522 11.8972 31.3705 14.2611 31.3705 17.1728C31.3705 20.0845 28.9522 22.4483 25.9734 22.4483C22.9946 22.4483 20.5763 20.0845 20.5763 17.1728C20.5763 14.2611 22.9946 11.8972 25.9734 11.8972Z" fill="black"/>
<path d="M37.1519 5.41668H34.4293C33.7836 5.41668 33.2602 5.92831 33.2602 6.55944V7.73352C33.2602 8.36465 33.7836 8.8763 34.4293 8.8763H37.1519C37.7976 8.8763 38.321 8.36465 38.321 7.73352V6.55944C38.321 5.92831 37.7976 5.41668 37.1519 5.41668Z" fill="black"/>
<path d="M50.9738 37.6957L42.0854 30.9956C42.1654 30.7139 42.1975 30.4321 42.1975 30.1347V5.29118C42.1975 3.38134 40.612 1.84721 38.6741 1.84721H19.6801V1.14277C19.6801 0.516592 19.1516 0 18.511 0H15.8044C15.1638 0 14.6353 0.516592 14.6353 1.14277V1.84721H13.274C11.3201 1.84721 9.75064 3.397 9.75064 5.29118V30.1347C9.75064 30.5104 9.81472 30.8704 9.92683 31.1992L1.02236 37.7114C-0.130739 38.5567 -0.0666622 39.3864 0.0774747 39.8091C0.221612 40.2317 0.67003 40.9362 2.1114 40.9362H49.8687C51.3101 40.9362 51.7585 40.2317 51.9187 39.8091C52.0628 39.3864 52.1429 38.5567 51.0058 37.6957H50.9738ZM12.0889 5.29118C12.0889 4.64935 12.6174 4.14841 13.258 4.14841H38.6741C39.3307 4.14841 39.8432 4.665 39.8432 5.29118V29.305L38.7862 28.5066C37.7132 27.7082 35.9035 27.0977 34.5582 27.0977H17.8864C16.5411 27.0977 14.7314 27.6926 13.6423 28.4753L12.0889 29.6024V5.29118ZM3.6809 38.6193L13.7384 31.2618L15.0517 30.3069C15.7083 29.8216 17.0536 29.3833 17.8864 29.3833H34.5582C35.375 29.3833 36.7042 29.8216 37.3609 30.3225L38.6261 31.2774L48.3633 38.635H3.6809V38.6193Z" fill="black"/>
</svg>
