<svg width="32" height="27" viewBox="0 0 32 27" fill="none" xmlns="http://www.w3.org/2000/svg">
<path d="M15.9836 16.1028C18.6151 16.1028 20.7537 14.0123 20.7537 11.4402C20.7537 8.86807 18.6151 6.7776 15.9836 6.7776C13.3522 6.7776 11.2136 8.86807 11.2136 11.4402C11.2136 14.0123 13.3522 16.1028 15.9836 16.1028ZM15.9836 8.19372C17.8168 8.19372 19.3049 9.64838 19.3049 11.4402C19.3049 13.232 17.8168 14.6867 15.9836 14.6867C14.1505 14.6867 12.6623 13.232 12.6623 11.4402C12.6623 9.64838 14.1505 8.19372 15.9836 8.19372Z" fill="white"/>
<path d="M22.8627 4.20568H21.1873C20.7899 4.20568 20.4678 4.52053 20.4678 4.90892V5.63143C20.4678 6.01982 20.7899 6.33468 21.1873 6.33468H22.8627C23.26 6.33468 23.5821 6.01982 23.5821 5.63143V4.90892C23.5821 4.52053 23.26 4.20568 22.8627 4.20568Z" fill="white"/>
<path d="M31.3685 24.0697L25.8987 19.9466C25.948 19.7732 25.9677 19.5998 25.9677 19.4167V4.12845C25.9677 2.95317 24.992 2.00909 23.7995 2.00909H12.1108V1.57558C12.1108 1.19024 11.7856 0.872339 11.3914 0.872339H9.72579C9.33156 0.872339 9.00633 1.19024 9.00633 1.57558V2.00909H8.16861C6.96624 2.00909 6.0004 2.9628 6.0004 4.12845V19.4167C6.0004 19.6479 6.03983 19.8695 6.10882 20.0718L0.629142 24.0793C-0.0804545 24.5995 -0.0410229 25.1101 0.0476767 25.3702C0.136376 25.6303 0.412326 26.0638 1.29932 26.0638H30.6885C31.5755 26.0638 31.8514 25.6303 31.95 25.3702C32.0387 25.1101 32.0879 24.5995 31.3882 24.0697H31.3685ZM7.43931 4.12845C7.43931 3.73348 7.76454 3.42521 8.15876 3.42521H23.7995C24.2035 3.42521 24.5189 3.74311 24.5189 4.12845V18.9062L23.8684 18.4149C23.2081 17.9236 22.0945 17.5479 21.2666 17.5479H11.007C10.1791 17.5479 9.06547 17.9139 8.39529 18.3956L7.43931 19.0892V4.12845ZM2.26517 24.6381L8.45442 20.1104L9.26258 19.5227C9.66666 19.2241 10.4945 18.9543 11.007 18.9543H21.2666C21.7692 18.9543 22.5872 19.2241 22.9913 19.5323L23.7699 20.12L29.762 24.6477H2.26517V24.6381Z" fill="white"/>
</svg>
