<svg width="38" height="74" viewBox="0 0 38 74" fill="none" xmlns="http://www.w3.org/2000/svg">
<g clip-path="url(#clip0_129_464)">
<path d="M30.9656 45.5056L26.3354 3.69941C26.2829 3.54985 25.7615 3.69199 25.5364 3.7073C24.9934 3.74405 24.4414 3.84341 23.8947 3.88337L23.7297 4.08099L19.6885 26.2019C18.7952 26.1125 17.7856 26.2125 16.9373 26.5087L14.4265 20.0693C13.4714 17.713 11.8947 14.6894 10.8756 12.3486C9.91805 10.1493 9.15097 7.856 8.06096 5.7177C7.89387 5.64672 7.64318 5.71808 7.45691 5.72485C6.82886 5.74869 6.13019 5.90641 5.48977 5.94422C6.73956 19.7028 8.93437 33.3896 10.0857 47.1578C10.1194 47.5671 9.89184 48.9338 10.327 49.0715" stroke="#F0DABC" stroke-width="2" stroke-miterlimit="10"/>
<path d="M33.7505 69.2498L31.2138 47.4115" stroke="#F0DABC" stroke-width="2" stroke-miterlimit="10"/>
<path d="M32.2972 68.8793C34.0965 68.9349 33.8734 68.7651 33.8734 68.7651L31.2133 47.4115" stroke="#F0DABC" stroke-width="2" stroke-miterlimit="10"/>
<path d="M10.9117 51.5619C10.4765 51.4242 10.4828 50.3212 10.0873 47.1534M9.4929 40.842L11.0271 41.308C11.0271 41.308 11.2455 42.66 12.6746 42.5216C13.458 42.4454 14.3525 40.9749 14.7536 40.4331C16.3191 38.3067 18.8038 34.9493 19.9218 32.7538C20.0097 32.5788 20.5272 31.2063 20.4403 31.1586C16.9618 32.5266 13.5362 30.3015 15.0291 27.738C15.2129 27.4235 16.5102 26.6571 16.9372 26.5073C17.7855 26.2111 18.7951 26.1111 19.6884 26.2005C20.5818 26.2899 21.7534 26.8943 22.1072 27.4793C23.3776 29.5765 20.2113 33.4048 19.3513 35.5589L21.1506 51.8017C20.7508 51.8379 20.5093 51.9559 20.1804 52.1116C16.79 53.7162 18.422 57.9853 21.7984 57.6102C21.6699 58.5094 22.8184 64.045 22.5541 64.3867C22.5437 64.4004 22.2782 64.3754 22.2116 64.4557C20.6573 66.3078 18.6668 68.2085 16.8053 69.9283C16.6141 70.105 16.3757 70.4649 16.194 70.5663C15.4673 70.9722 13.686 70.8782 12.7535 71.0802C12.7335 70.99 12.7409 70.8954 12.7227 70.8036C11.4792 63.9709 11.54 56.7621 10.4132 49.887M20.1297 27.1776C18.4767 26.4322 15.9278 27.6616 16.2747 29.1309C16.4325 29.7965 16.3373 29.8828 16.8593 30.246C17.0362 30.3691 17.5501 30.5764 17.6196 30.6107C17.8258 30.7109 19.1517 30.4328 19.5118 30.3255C21.3871 29.7649 21.7428 27.905 20.1297 27.1776Z" stroke="#F0DABC" stroke-width="2" stroke-miterlimit="10"/>
<path d="M16.805 69.9269C18.6665 68.2072 20.6569 66.305 22.2113 64.4543C22.278 64.374 22.5436 64.4004 22.5538 64.3853C24.0576 64.9709 25.162 66.3459 26.7926 66.7129C26.8382 66.747 26.859 66.9155 27.0198 67.0376C27.77 67.6092 30.1121 69.3546 33.8741 68.7654" stroke="#F0DABC" stroke-width="2" stroke-miterlimit="10"/>
<path d="M21.1504 51.8003C22.6811 51.6633 24.3316 52.8864 24.5717 53.8621C24.8956 55.1785 24.0484 57.3592 21.7982 57.6088C18.422 57.9853 16.7878 53.715 20.1802 52.1102C20.509 51.9545 20.7506 51.8365 21.1504 51.8003Z" stroke="#F0DABC" stroke-width="2" stroke-miterlimit="10"/>
<path d="M10.3878 49.8502L10.1477 48.8745" stroke="#F0DABC" stroke-width="2" stroke-miterlimit="10"/>
<path d="M31.2139 47.4115L30.9656 45.5056" stroke="#F0DABC" stroke-width="2" stroke-miterlimit="10"/>
</g>
<defs>
<clipPath id="clip0_129_464">
<rect width="29.4568" height="70.3962" fill="white" transform="translate(0 3.26465) rotate(-6.36311)"/>
</clipPath>
</defs>
</svg>
