<svg width="53" height="77" viewBox="0 0 53 77" fill="none" xmlns="http://www.w3.org/2000/svg">
<g clip-path="url(#clip0_117_314)">
<path d="M38.619 43.4565L23.8083 4.08845C23.7205 3.95649 23.2504 4.22297 23.0361 4.29339C22.5189 4.46311 22.0086 4.69571 21.4887 4.86943L21.3776 5.10167L22.9242 27.5354C22.0365 27.6694 21.0829 28.0156 20.3339 28.5121L16.3108 22.8922C14.8033 20.8447 12.5288 18.3042 10.9632 16.2875C9.49222 14.3928 8.18258 12.3599 6.59828 10.557C6.41884 10.5295 6.19353 10.6606 6.0147 10.7131C5.41199 10.8913 4.7739 11.2167 4.16265 11.4115C8.77136 24.4353 14.2781 37.1563 18.7938 50.2137C18.9275 50.602 19.0445 51.9826 19.5002 52.0085" stroke="#B4412F" stroke-width="2" stroke-miterlimit="10"/>
<path d="M47.1815 65.7775L39.3305 45.242" stroke="#B4412F" stroke-width="2" stroke-miterlimit="10"/>
<path d="M45.6816 65.7775C47.4389 65.387 47.1808 65.2776 47.1808 65.2776L39.33 45.2422" stroke="#B4412F" stroke-width="2" stroke-miterlimit="10"/>
<path d="M20.6816 54.2775C20.226 54.2515 19.9597 53.1812 18.7941 50.2091M16.6596 44.24L18.2614 44.3126C18.2614 44.3126 18.8069 45.5688 20.1575 45.0819C20.8978 44.8146 21.4015 43.1688 21.6564 42.5447C22.6483 40.0975 24.2269 36.2305 24.7682 33.8269C24.8101 33.6356 24.9726 32.1779 24.8767 32.1531C21.8437 34.3377 17.9748 33.0275 18.7883 30.1747C18.8888 29.8245 19.9567 28.7615 20.3334 28.5109C21.0823 28.0144 22.0359 27.6682 22.9237 27.5342C23.8115 27.4002 25.0961 27.6966 25.5833 28.1761C27.3323 29.8946 25.2094 34.3863 24.908 36.6861L30.6627 51.9815C30.2842 52.1153 30.0793 52.2892 29.7991 52.5213C26.9099 54.9134 29.5456 58.6473 32.7248 57.45C32.8223 58.3532 35.3022 63.4336 35.1305 63.83C35.1238 63.8459 34.8604 63.8873 34.8157 63.9815C33.7669 66.1601 32.3074 68.4935 30.9282 70.6197C30.7866 70.8382 30.6444 71.2457 30.4934 71.3889C29.8895 71.9617 28.1402 72.3105 27.2864 72.7365C27.2448 72.654 27.2285 72.5605 27.1882 72.4761C24.296 66.162 22.5747 59.1615 19.785 52.7776M23.5925 28.3721C21.8067 28.058 19.6404 29.8787 20.3394 31.2168C20.6567 31.8229 20.5857 31.93 21.1812 32.1531C21.383 32.2287 21.9322 32.3026 22.008 32.3187C22.2325 32.3649 23.4487 31.768 23.7711 31.575C25.45 30.5687 25.3353 28.6786 23.5925 28.3721Z" stroke="#B4412F" stroke-width="2" stroke-miterlimit="10"/>
<path d="M30.928 70.6182C32.3072 68.492 33.7662 66.1573 34.8155 63.98C34.8602 63.8858 35.1241 63.8458 35.1303 63.8286C36.7321 64.0247 38.1419 65.0844 39.8126 65.0374C39.8652 65.0592 39.927 65.2173 40.113 65.2959C40.9811 65.6646 43.6816 66.7775 47.1816 65.2775" stroke="#B4412F" stroke-width="2" stroke-miterlimit="10"/>
<path d="M30.6623 51.98C32.1117 51.4692 34.0131 52.2468 34.4867 53.133C35.1257 54.3287 34.8433 56.6511 32.7243 57.4486C29.5457 58.6472 26.9076 54.9127 29.7986 52.5198C30.0788 52.2877 30.2837 52.1138 30.6623 51.98Z" stroke="#B4412F" stroke-width="2" stroke-miterlimit="10"/>
<path d="M19.752 52.7479L19.2783 51.8617" stroke="#B4412F" stroke-width="2" stroke-miterlimit="10"/>
<path d="M39.3305 45.242L38.6191 43.4565" stroke="#B4412F" stroke-width="2" stroke-miterlimit="10"/>
</g>
<defs>
<clipPath id="clip0_117_314">
<rect width="29.4568" height="70.3962" fill="white" transform="translate(0 10.393) rotate(-20.66)"/>
</clipPath>
</defs>
</svg>
